<?xml version="1.0" standalone="no"?>
<!DOCTYPE svg PUBLIC "-//W3C//DTD SVG 20010904//EN"
 "http://www.w3.org/TR/2001/REC-SVG-20010904/DTD/svg10.dtd">
<svg version="1.0" xmlns="http://www.w3.org/2000/svg"
 width="1344.000000pt" height="1344.000000pt" viewBox="0 0 1344.000000 1344.000000"
 preserveAspectRatio="xMidYMid meet">
<metadata>
Created by potrace 1.14, written by Peter Selinger 2001-2017
</metadata>
<g transform="translate(0.000000,1344.000000) scale(0.100000,-0.100000)"
fill="#000000" stroke="none">
<path d="M8985 13179 c-110 -138 -208 -260 -218 -272 -10 -12 -55 -68 -100
-125 -45 -57 -92 -116 -105 -130 -12 -15 -42 -52 -65 -82 -23 -30 -44 -57 -47
-60 -5 -4 -287 -357 -340 -424 -8 -10 -23 -27 -32 -38 -10 -10 -18 -22 -18
-27 0 -5 -4 -11 -8 -13 -4 -1 -23 -23 -42 -48 -19 -25 -38 -47 -41 -50 -4 -4
-114 -141 -192 -240 -51 -64 -174 -217 -183 -226 -5 -7 -35 -44 -65 -83 -29
-39 -57 -71 -61 -71 -5 0 -8 -4 -8 -10 0 -5 -9 -20 -19 -32 -38 -44 -56 -67
-75 -93 -20 -26 -37 -47 -82 -97 -13 -15 -24 -32 -24 -37 0 -5 -4 -11 -8 -13
-6 -2 -332 -406 -459 -568 -17 -21 -121 -152 -138 -171 -7 -10 -37 -48 -67
-85 -51 -67 -65 -84 -106 -131 -10 -12 -27 -34 -38 -48 -10 -15 -24 -32 -29
-39 -6 -6 -48 -58 -94 -116 -45 -58 -97 -123 -116 -145 -18 -22 -72 -89 -120
-150 -49 -60 -92 -111 -97 -113 -4 -2 -8 -10 -8 -17 0 -7 -3 -15 -8 -17 -6 -2
-302 -369 -422 -522 -8 -10 -23 -27 -32 -38 -10 -10 -18 -22 -18 -27 0 -5 -4
-11 -8 -13 -4 -1 -23 -23 -42 -48 -19 -25 -38 -47 -41 -50 -3 -3 -45 -54 -93
-115 -48 -60 -93 -117 -99 -125 -7 -8 -68 -85 -135 -170 -68 -85 -139 -173
-157 -195 -18 -22 -64 -80 -104 -130 -39 -49 -77 -97 -84 -105 -22 -28 -102
-126 -132 -165 -16 -21 -34 -43 -40 -49 -5 -6 -32 -40 -60 -76 -27 -36 -52
-67 -56 -70 -4 -3 -24 -27 -45 -55 -21 -27 -42 -55 -48 -62 -12 -13 -18 -20
-131 -163 -42 -52 -82 -102 -88 -110 -7 -8 -48 -60 -92 -115 -44 -55 -84 -105
-90 -111 -5 -6 -21 -26 -35 -44 -14 -18 -37 -49 -53 -68 l-27 -35 37 -46 c21
-25 40 -48 43 -51 3 -3 21 -25 40 -50 19 -25 37 -47 40 -50 3 -3 21 -25 40
-50 19 -25 38 -46 42 -48 4 -2 8 -10 8 -17 0 -7 4 -15 9 -17 7 -3 85 -96 176
-213 17 -21 89 -111 160 -200 72 -89 144 -178 160 -199 17 -21 37 -46 45 -56
8 -9 26 -32 40 -50 28 -38 72 -92 80 -100 3 -3 24 -30 47 -60 23 -30 50 -64
60 -75 10 -11 34 -40 53 -65 19 -25 39 -50 45 -56 5 -6 21 -26 35 -44 27 -37
72 -92 80 -100 3 -3 24 -30 47 -60 23 -30 53 -67 65 -81 13 -15 34 -41 48 -59
14 -18 32 -40 40 -50 8 -10 26 -32 40 -50 28 -38 72 -92 80 -100 3 -3 24 -30
47 -60 23 -30 50 -64 60 -75 10 -11 34 -40 53 -65 19 -25 40 -52 47 -60 7 -8
44 -55 84 -105 39 -49 84 -106 100 -125 15 -19 58 -73 96 -120 85 -106 85
-106 125 -156 18 -22 47 -57 63 -78 17 -22 35 -44 40 -50 6 -6 22 -27 36 -46
15 -19 35 -45 45 -56 11 -12 30 -36 44 -54 38 -50 199 -252 223 -280 12 -14
38 -45 57 -70 19 -25 37 -47 40 -50 3 -3 21 -25 40 -50 19 -25 38 -46 42 -48
4 -2 8 -8 8 -13 0 -5 8 -17 18 -27 22 -23 50 -57 84 -104 15 -20 33 -42 40
-50 8 -7 29 -33 48 -58 19 -25 37 -47 40 -50 3 -3 17 -21 30 -40 13 -19 29
-39 36 -45 6 -5 46 -55 89 -110 43 -55 81 -102 85 -105 3 -3 21 -25 40 -50 19
-25 37 -47 40 -50 3 -3 17 -21 31 -40 15 -19 35 -45 45 -57 11 -12 29 -35 41
-50 12 -15 31 -39 42 -53 11 -14 24 -29 28 -35 30 -38 89 -111 93 -115 3 -3
21 -25 40 -50 19 -25 40 -52 47 -60 7 -8 44 -55 83 -104 68 -85 119 -149 150
-186 8 -9 26 -32 40 -50 14 -18 30 -38 35 -44 6 -6 22 -27 37 -48 15 -20 33
-42 40 -50 7 -7 32 -38 55 -68 23 -30 50 -64 60 -75 10 -11 34 -40 53 -65 63
-81 192 -243 200 -250 3 -3 30 -36 60 -75 30 -38 59 -75 65 -81 5 -6 21 -26
35 -44 35 -47 198 -250 223 -280 12 -14 38 -45 57 -70 19 -25 39 -50 45 -56 5
-6 21 -26 35 -44 28 -37 72 -92 80 -100 3 -3 17 -21 32 -42 15 -20 33 -42 40
-50 7 -7 32 -38 55 -68 23 -30 53 -67 65 -82 13 -14 34 -40 48 -57 14 -17 27
-31 30 -31 6 0 5 13348 -1 13355 -3 2 -95 -109 -204 -246z"/>
</g>
</svg>
